<?xml version="1.0" encoding="utf-8"?>
<!-- Generator: Adobe Illustrator 16.0.0, SVG Export Plug-In . SVG Version: 6.00 Build 0)  -->
<!DOCTYPE svg PUBLIC "-//W3C//DTD SVG 1.1//EN" "http://www.w3.org/Graphics/SVG/1.1/DTD/svg11.dtd">
<svg version="1.1" id="图层_1" xmlns="http://www.w3.org/2000/svg" xmlns:xlink="http://www.w3.org/1999/xlink" x="0px" y="0px"
	 width="50px" height="50px" viewBox="-12.5 -12.5 50 50" enable-background="new -12.5 -12.5 50 50" xml:space="preserve">
<title>spin</title>
<path opacity="0.95" fill="#FFFFFF" enable-background="new    " d="M-6.428-0.787l-2.041,3.533l5.352,3.091
	c0.529-1.271,1.221-2.452,2.022-3.544L-6.428-0.787z"/>
<path opacity="0.95" fill="#FFFFFF" enable-background="new    " d="M2.749-8.472l-3.532,2.039l3.049,5.281
	c1.076-0.83,2.244-1.54,3.5-2.093L2.749-8.472z"/>
<path opacity="0.95" fill="#FFFFFF" enable-background="new    " d="M14.54-4.547v-5.989h-4.078v6.001
	c0.683-0.084,1.375-0.142,2.08-0.142C13.22-4.677,13.884-4.625,14.54-4.547z"/>
<path opacity="0.95" fill="#FFFFFF" enable-background="new    " d="M25.782-6.426l-3.531-2.041l-2.997,5.188
	c1.258,0.55,2.429,1.258,3.508,2.083L25.782-6.426z"/>
<path opacity="0.95" fill="#FFFFFF" enable-background="new    " d="M33.474,2.748l-2.037-3.534L26.153,2.26
	c0.804,1.091,1.496,2.27,2.028,3.538L33.474,2.748z"/>
<path opacity="0.95" fill="#FFFFFF" enable-background="new    " d="M29.399,14.54h6.138v-4.078h-6.14
	c0.079,0.673,0.131,1.354,0.131,2.05C29.528,13.199,29.478,13.875,29.399,14.54z"/>
<path opacity="0.95" fill="#FFFFFF" enable-background="new    " d="M31.426,25.782l2.042-3.534L28.194,19.2
	c-0.53,1.271-1.223,2.45-2.025,3.544L31.426,25.782z"/>
<path opacity="0.95" fill="#FFFFFF" enable-background="new    " d="M22.251,33.471l3.534-2.037l-3.013-5.224
	c-1.078,0.827-2.249,1.537-3.507,2.086L22.251,33.471z"/>
<path opacity="0.95" fill="#FFFFFF" enable-background="new    " d="M10.462,29.56v5.978h4.078v-5.966
	c-0.656,0.078-1.32,0.13-1.999,0.13C11.836,29.701,11.145,29.643,10.462,29.56z"/>
<path opacity="0.95" fill="#FFFFFF" enable-background="new    " d="M-0.787,31.434l3.532,2.037l3.005-5.207
	c-1.255-0.557-2.424-1.267-3.499-2.098L-0.787,31.434z"/>
<path opacity="0.95" fill="#FFFFFF" enable-background="new    " d="M-8.475,22.248l2.037,3.53l5.324-3.071
	c-0.798-1.093-1.486-2.275-2.013-3.545L-8.475,22.248z"/>
<path opacity="0.95" fill="#FFFFFF" enable-background="new    " d="M-4.315,10.462h-6.222v4.078h6.218
	c-0.078-0.665-0.128-1.341-0.128-2.028C-4.447,11.816-4.394,11.135-4.315,10.462z"/>
</svg>
